<?xml version="1.0" standalone="no"?><!DOCTYPE svg PUBLIC "-//W3C//DTD SVG 1.1//EN" "http://www.w3.org/Graphics/SVG/1.1/DTD/svg11.dtd"><svg xmlns:xlink="http://www.w3.org/1999/xlink" xmlns="http://www.w3.org/2000/svg" version="1.1" width="200" height="200" viewBox="0 0 200 200"><defs><style type="text/css"><![CDATA[
@font-face {
  font-family: "ifont";
  src: url("//at.alicdn.com/t/font_1442373896_4754455.eot?#iefix") format("embedded-opentype"), url("//at.alicdn.com/t/font_1442373896_4754455.woff") format("woff"), url("//at.alicdn.com/t/font_1442373896_4754455.ttf") format("truetype"), url("//at.alicdn.com/t/font_1442373896_4754455.svg#ifont") format("svg");
}

]]></style></defs><g class="transform-group"><g transform="scale(0.1953125, 0.1953125)"><path d="M872.623 461.785 432.968 896 128 894.948l0.594-299.557 439.655-434.225c0 0 63.982-70.414 135.277 0s108.472 107.133 169.097 167.008C933.248 388.06 872.623 461.785 872.623 461.785zM228.656 794.685l166.394 0.664 7.564-7.574L237 621.929l-7.564 7.574L228.656 794.685zM759.4 364.149l-99.373-99.509c-22.864-22.899-47.172-19.089-64.516-1.731L309.271 549.557l165.609 165.851 286.246-286.653C778.464 411.397 782.264 387.048 759.4 364.149z" fill="#272636"></path></g></g></svg>