<?xml version="1.0" standalone="no"?><!DOCTYPE svg PUBLIC "-//W3C//DTD SVG 1.1//EN" "http://www.w3.org/Graphics/SVG/1.1/DTD/svg11.dtd"><svg xmlns:xlink="http://www.w3.org/1999/xlink" xmlns="http://www.w3.org/2000/svg" version="1.1" width="200" height="200" viewBox="0 0 200 200"><defs><style type="text/css"><![CDATA[
@font-face {
  font-family: "ifont";
  src: url("//at.alicdn.com/t/font_1442373896_4754455.eot?#iefix") format("embedded-opentype"), url("//at.alicdn.com/t/font_1442373896_4754455.woff") format("woff"), url("//at.alicdn.com/t/font_1442373896_4754455.ttf") format("truetype"), url("//at.alicdn.com/t/font_1442373896_4754455.svg#ifont") format("svg");
}

]]></style></defs><g class="transform-group"><g transform="scale(0.1953125, 0.1953125)"><path d="M920.576 202.1376 253.952 202.1376c-44.1344 0-79.872 35.7376-79.872 79.872l0 53.248L36.6592 335.2576c-9.9328 0-17.92 8.0896-17.92 17.92s8.0896 17.92 17.92 17.92L174.08 371.0976l0 54.5792L75.3664 425.6768c-9.9328 0-17.92 8.0896-17.92 17.92 0 9.9328 8.0896 17.92 17.92 17.92L174.08 461.5168l0 313.6512c0 44.1344 35.7376 79.872 79.872 79.872l666.624 0c44.1344 0 79.872-35.7376 79.872-79.872L1000.448 282.0096C1000.448 237.8752 964.7104 202.1376 920.576 202.1376zM921.6 294.5024l-323.8912 329.728c-3.072 3.072-7.168 4.8128-11.5712 4.8128l0 0c-4.3008 0-8.4992-1.7408-11.5712-4.9152L252.928 294.8096c-6.2464-6.3488-6.144-16.5888 0.3072-22.8352 6.4512-6.2464 16.5888-6.144 22.8352 0.3072L586.1376 589.824l312.32-318.0544c6.2464-6.3488 16.4864-6.4512 22.8352-0.2048C927.6416 277.9136 927.744 288.1536 921.6 294.5024z" fill="#272636"></path></g></g></svg>