<?xml version="1.0" standalone="no"?><!DOCTYPE svg PUBLIC "-//W3C//DTD SVG 1.1//EN" "http://www.w3.org/Graphics/SVG/1.1/DTD/svg11.dtd"><svg xmlns:xlink="http://www.w3.org/1999/xlink" xmlns="http://www.w3.org/2000/svg" version="1.1" width="200" height="200" viewBox="0 0 200 200"><defs><style type="text/css"><![CDATA[
@font-face {
  font-family: "ifont";
  src: url("//at.alicdn.com/t/font_1442373896_4754455.eot?#iefix") format("embedded-opentype"), url("//at.alicdn.com/t/font_1442373896_4754455.woff") format("woff"), url("//at.alicdn.com/t/font_1442373896_4754455.ttf") format("truetype"), url("//at.alicdn.com/t/font_1442373896_4754455.svg#ifont") format("svg");
}

]]></style></defs><g class="transform-group"><g transform="scale(0.1953125, 0.1953125)"><path d="M801.936915 798.500153 766.562243 747.93757c116.812449-78.000492 193.437617-188.93814 193.437617-235.93757 0-78.156034-200.561875-319.969429-448.000384-319.969429-42.468231 0-83.437317 6.656607-122.343419 17.656125l-37.906332-54.109362c50.468438-17.172101 104.21862-27.593452 160.249751-27.593452 282.750759 0 512 287.061948 512 384.016117C1023.999477 574.686714 936.00026 706.842617 801.936915 798.500153L801.936915 798.500153zM511.999477 384.015094c-0.094144 0-0.155543 0.047072-0.249687 0.047072l-41.437761-59.21873c13.468756-3.000334 27.343765-4.827959 41.687448-4.827959 106.000196 0 191.999872 85.952604 191.999872 191.984522 0 38.031175-11.498892 73.250304-30.499641 103.062284l-41.687448-59.501162c4.999874-13.68672 8.187473-28.186969 8.187473-43.562145C639.999733 441.296705 582.687422 384.015094 511.999477 384.015094L511.999477 384.015094zM833.187663 954.7498c-14.437827 10.125615-34.437323 6.624884-44.562938-7.875365L182.968672 81.858356c-10.188037-14.500249-6.688329-34.437323 7.843642-44.608987 14.468526-10.109242 34.437323-6.609535 44.531216 7.906064l605.718475 865.00073C851.187619 924.656411 847.686889 944.593486 833.187663 954.7498L833.187663 954.7498zM511.999477 640.029932c7.250124 0 14.281261-0.99977 21.218254-2.186805l38.907125 55.623855c-18.999726 6.312776-39.031968 10.562567-60.125379 10.562567-106.030895 0-191.969173-85.968977-191.969173-192.031595 0-44.99989 16.125259-85.812411 42.031279-118.515231l39.030945 55.749722c-10.562567 18.593474-17.062608 39.812751-17.062608 62.765509C384.030943 582.686922 441.280832 640.029932 511.999477 640.029932L511.999477 640.029932zM269.28148 261.061784C145.843123 332.999187 64.000116 444.405509 64.000116 512c0 80.156598 200.562898 319.999105 447.99936 319.999105 48.687886 0 95.437629-9.655917 139.312906-25.405623l37.063127 52.905954c-55.063083 22.343891-114.312512 36.500309-176.37501 36.500309-282.781458 0-511.969301-287.813055-511.969301-383.999744 0-81.015152 93.375667-214.625172 234.31256-300.968679L269.28148 261.061784 269.28148 261.061784z" fill="#272636"></path></g></g></svg>