<?xml version="1.0" standalone="no"?><!DOCTYPE svg PUBLIC "-//W3C//DTD SVG 1.1//EN" "http://www.w3.org/Graphics/SVG/1.1/DTD/svg11.dtd"><svg xmlns:xlink="http://www.w3.org/1999/xlink" xmlns="http://www.w3.org/2000/svg" version="1.1" width="200" height="200" viewBox="0 0 200 200"><defs><style type="text/css"><![CDATA[
@font-face {
  font-family: "ifont";
  src: url("//at.alicdn.com/t/font_1442373896_4754455.eot?#iefix") format("embedded-opentype"), url("//at.alicdn.com/t/font_1442373896_4754455.woff") format("woff"), url("//at.alicdn.com/t/font_1442373896_4754455.ttf") format("truetype"), url("//at.alicdn.com/t/font_1442373896_4754455.svg#ifont") format("svg");
}

]]></style></defs><g class="transform-group"><g transform="scale(0.1953125, 0.1953125)"><path d="M996.7616 266.752c-7.4752-4.7104-17.408-2.3552-22.016 5.12-22.6304 36.1472-22.8352 76.1856-22.8352 79.0528L951.9104 754.688c0 32.9728-26.8288 59.904-59.904 59.904L265.5232 814.592c-32.9728 0-59.904-26.8288-59.904-59.904L205.6192 288.9728c0-32.9728 26.8288-59.904 59.904-59.904L891.904 229.0688c15.5648 0 26.4192 3.3792 29.7984 9.216 1.3312 2.2528 3.9936 6.9632-5.3248 16.384L585.5232 591.6672l-307.2-314.6752c-6.144-6.3488-16.2816-6.4512-22.6304-0.3072-6.3488 6.144-6.4512 16.2816-0.3072 22.6304l318.6688 326.4512c2.9696 3.072 7.168 4.8128 11.4688 4.8128 0 0 0 0 0 0 4.3008 0 8.3968-1.7408 11.4688-4.8128l191.7952-195.1744c48.0256-48.8448 86.4256-87.9616 110.8992-112.8448 0 0 0.1024-0.1024 0.1024-0.1024l27.7504-28.2624c0.1024-0.1024 0.2048-0.2048 0.3072-0.3072 0.9216-0.9216 1.4336-1.4336 1.536-1.536l0 0 10.24-10.3424c16.6912-16.9984 20.48-37.0688 10.1376-54.784-9.6256-16.6912-28.9792-25.1904-57.5488-25.1904L265.5232 197.2224c-50.688 0-91.8528 41.2672-91.8528 91.8528l0 36.2496L33.1776 325.3248c-8.8064 0-15.9744 7.168-15.9744 15.9744 0 8.8064 7.168 15.9744 15.9744 15.9744l140.4928 0 0 49.8688L69.12 407.1424c-8.8064 0-15.9744 7.168-15.9744 15.9744s7.168 15.9744 15.9744 15.9744l104.5504 0L173.6704 754.688c0 50.688 41.2672 91.8528 91.8528 91.8528L891.904 846.5408c50.688 0 91.8528-41.2672 91.8528-91.8528L983.7568 350.9248c0 0 0-0.1024 0-0.1024 0-0.3072-0.1024-32.9728 18.0224-61.952C1006.4896 281.2928 1004.2368 271.4624 996.7616 266.752z" fill="#272636"></path></g></g></svg>