<?xml version="1.0" standalone="no"?><!DOCTYPE svg PUBLIC "-//W3C//DTD SVG 1.1//EN" "http://www.w3.org/Graphics/SVG/1.1/DTD/svg11.dtd"><svg xmlns:xlink="http://www.w3.org/1999/xlink" xmlns="http://www.w3.org/2000/svg" version="1.1" width="200" height="200" viewBox="0 0 200 200"><defs><style type="text/css"><![CDATA[
@font-face {
  font-family: "ifont";
  src: url("//at.alicdn.com/t/font_1442373896_4754455.eot?#iefix") format("embedded-opentype"), url("//at.alicdn.com/t/font_1442373896_4754455.woff") format("woff"), url("//at.alicdn.com/t/font_1442373896_4754455.ttf") format("truetype"), url("//at.alicdn.com/t/font_1442373896_4754455.svg#ifont") format("svg");
}

]]></style></defs><g class="transform-group"><g transform="scale(0.1953125, 0.1953125)"><path d="M512 960c-247.039484 0-448-200.960516-448-448S264.960516 64 512 64 960 264.960516 960 512 759.039484 960 512 960zM512 128c-211.744443 0-384 172.255557-384 384s172.255557 384 384 384 384-172.255557 384-384S723.744443 128 512 128zM668.832254 501.152426c-0.032684-0.127295-0.192662-0.25631-0.25631-0.383604-1.536138-3.615858-3.648542-7.071738-6.591802-10.047682-0.032684-0.032684-0.063647-0.032684-0.096331-0.063647-0.032684-0.032684-0.032684-0.063647-0.063647-0.096331l-158.911974-159.359226c-12.480043-12.512727-32.735385-12.576374-45.248112-0.063647-12.512727 12.480043-12.54369 32.735385-0.063647 45.248112l136.287918 136.671523-137.407768 135.904314c-12.576374 12.447359-12.672705 32.671738-0.25631 45.248112 6.239161 6.335493 14.496116 9.504099 22.751351 9.504099 8.12794 0 16.25588-3.103239 22.496761-9.247789l160.25545-158.495686C671.231931 526.592447 673.600645 512.767209 668.832254 501.152426z" fill="#272636"></path></g></g></svg>