<?xml version="1.0" standalone="no"?><!DOCTYPE svg PUBLIC "-//W3C//DTD SVG 1.1//EN" "http://www.w3.org/Graphics/SVG/1.1/DTD/svg11.dtd"><svg xmlns:xlink="http://www.w3.org/1999/xlink" xmlns="http://www.w3.org/2000/svg" version="1.1" width="200" height="200" viewBox="0 0 200 200"><defs><style type="text/css"><![CDATA[
@font-face {
  font-family: "ifont";
  src: url("//at.alicdn.com/t/font_1442373896_4754455.eot?#iefix") format("embedded-opentype"), url("//at.alicdn.com/t/font_1442373896_4754455.woff") format("woff"), url("//at.alicdn.com/t/font_1442373896_4754455.ttf") format("truetype"), url("//at.alicdn.com/t/font_1442373896_4754455.svg#ifont") format("svg");
}

]]></style></defs><g class="transform-group"><g transform="scale(0.1953125, 0.1953125)"><path d="M864.32 384l-189.344 0c13.792-32 29.568-114.688 20.32-189.824-7.328-59.936-42.304-106.08-93.6-123.456C563.648 57.824 523.392 64 501.728 86.144c-25.792 26.272-37.92 75.84-50.72 128.288-8.384 34.368-17.088 69.856-27.84 88.16C391.968 355.648 326.496 384 313.696 384L224 384c-17.664 0-32 14.432-32 32.096l0 447.936C192 881.728 206.336 896 224 896l86.592 0c26.752 0 126.432 64 241.76 64l215.936 0c35.552 0 96.768-13.76 119.712-51.68 23.136-38.464 71.936-388.672 71.936-427.488C959.936 427.2 907.616 384 864.32 384zM96 384.096c-17.664 0-32 14.336-32 32l0 447.936c0 17.696 14.336 32 32 32s32-14.304 32-32L128 416.096C128 398.432 113.664 384.096 96 384.096z" fill="#272636"></path></g></g></svg>